<svg width="120" height="150" xmlns="http://www.w3.org/2000/svg">
  <defs>
    <linearGradient id="characterGradient" x1="0%" y1="0%" x2="0%" y2="100%">
      <stop offset="0%" style="stop-color:#FFD100;stop-opacity:1" />
      <stop offset="100%" style="stop-color:#0073CF;stop-opacity:1" />
    </linearGradient>
  </defs>
  <!-- Cuerpo -->
  <ellipse cx="60" cy="130" rx="25" ry="15" fill="#0073CF"/>
  <rect x="40" y="85" width="40" height="50" rx="8" fill="url(#characterGradient)"/>
  
  <!-- Cabeza -->
  <circle cx="60" cy="50" r="25" fill="#FFD100" stroke="#0073CF" stroke-width="2"/>
  
  <!-- Ojos -->
  <circle cx="52" cy="45" r="3" fill="#0073CF"/>
  <circle cx="68" cy="45" r="3" fill="#0073CF"/>
  
  <!-- Sonrisa -->
  <path d="M 50 55 Q 60 65 70 55" stroke="#0073CF" stroke-width="2" fill="none"/>
  
  <!-- Brazos -->
  <rect x="25" y="90" width="15" height="5" rx="2" fill="#FFD100"/>
  <rect x="80" y="90" width="15" height="5" rx="2" fill="#FFD100"/>
  
  <!-- Manos -->
  <circle cx="22" cy="92" r="4" fill="#FFD100"/>
  <circle cx="98" cy="92" r="4" fill="#FFD100"/>
  
  <!-- Piernas -->
  <rect x="50" y="130" width="8" height="15" rx="2" fill="#0073CF"/>
  <rect x="62" y="130" width="8" height="15" rx="2" fill="#0073CF"/>
  
  <!-- Pies -->
  <ellipse cx="54" cy="148" rx="6" ry="3" fill="#FFD100"/>
  <ellipse cx="66" cy="148" rx="6" ry="3" fill="#FFD100"/>
</svg>